<svg width="100%" height="100%" viewBox="0 0 4167 4167" version="1.1" xmlns="http://www.w3.org/2000/svg" xmlns:xlink="http://www.w3.org/1999/xlink" xml:space="preserve" xmlns:serif="http://www.serif.com/" style="fill-rule:evenodd;clip-rule:evenodd;stroke-linejoin:round;stroke-miterlimit:2;">
    <g id="Icon-Areas" serif:id="Icon Areas" transform="matrix(4.069011,0,0,4.069011,-5192.058212,-203.450873)">
        <path d="M1624.594,50L1951.406,50C2069.411,50 2102.522,50 2153.324,67.082C2213.386,89.032 2260.968,136.615 2282.918,196.675C2300,247.478 2300,280.59 2300,398.595L2300,725.406C2300,843.41 2300,876.522 2282.918,927.325C2260.968,987.386 2213.386,1034.968 2153.324,1056.918C2102.522,1074 2069.411,1074 1951.406,1074L1624.594,1074C1506.59,1074 1473.478,1074 1422.675,1056.918C1362.614,1034.968 1315.032,987.386 1293.082,927.325C1276,876.522 1276,843.41 1276,725.406L1276,398.595C1276,280.59 1276,247.478 1293.082,196.675C1315.032,136.615 1362.614,89.032 1422.675,67.082C1473.478,50 1506.59,50 1624.594,50Z" style="fill:rgb(26,22,48);"/>
    </g>
    <g transform="matrix(14.515095,0,0,14.515095,-6721.115588,-27772.515053)">
        <text x="533px" y="2143px" style="font-family:'Helvetica';font-size:240.12px;fill:rgb(200,160,48);">L</text>
    </g>
</svg>
